PathFileType	4	(X/Y/Z)	max-elbow-flex-wide_P0_1-783_filt_butterworth_LSTM.trc
DataRate	CameraRate	NumFrames	NumMarkers	Units	OrigDataRate	OrigDataStartFrame	OrigNumFrames
60	60	32	3	m	60	1	782
Frame#	Time	r_acromion			r_humerus_epicondyle			r_radius_styloid		
X1	Y1	Z1	X2	Y2	Z2	X3	Y3	Z3
1	0.0167	0.0	0.837	0.17000000000000004	0.2841	0.8109	0.22440000000000004	0.47450000000000003	0.8508	0.32110000000000005
2	0.0333	-0.00029999999999996696	0.8364	0.17040000000000022	0.28380000000000005	0.8106	0.22410000000000008	0.47450000000000003	0.8506	0.3205000000000001
3	0.05	-0.0005999999999999894	0.8358999999999999	0.1705000000000002	0.2835	0.8105	0.2238000000000001	0.47450000000000003	0.8504	0.3199000000000002
4	0.0667	-0.0008999999999999564	0.8354999999999999	0.1705000000000002	0.2832	0.8104	0.22360000000000013	0.4749	0.8502999999999998	0.31950000000000023
5	0.0833	-0.0010999999999999899	0.8351999999999999	0.17040000000000022	0.28300000000000003	0.8106	0.22340000000000015	0.47550000000000003	0.8502999999999998	0.31910000000000005
6	0.1	-0.0010999999999999899	0.8351	0.17040000000000022	0.28280000000000005	0.8107	0.22340000000000015	0.47630000000000006	0.8505	0.3188000000000001
7	0.1167	-0.0008999999999999564	0.8351	0.1706000000000002	0.28270000000000006	0.8109	0.22360000000000013	0.477	0.8506	0.3187000000000001
8	0.1333	-0.0005999999999999894	0.8351999999999999	0.17090000000000016	0.2824	0.8109	0.2240000000000001	0.47740000000000005	0.8507	0.3187000000000001
9	0.15	-0.00029999999999996696	0.8352999999999999	0.17130000000000012	0.2821	0.8108	0.22450000000000025	0.47740000000000005	0.8507	0.31900000000000006
10	0.1667	-0.00029999999999996696	0.8352999999999999	0.17160000000000009	0.28170000000000006	0.8105	0.2250000000000002	0.477	0.8506	0.31950000000000023
11	0.1833	-0.0005000000000000004	0.8351999999999999	0.17190000000000005	0.2812	0.8101	0.22530000000000017	0.47640000000000005	0.8505	0.32010000000000016
12	0.2	-0.0008999999999999564	0.835	0.17210000000000025	0.28070000000000006	0.8095999999999999	0.22550000000000014	0.4758	0.8504	0.3208000000000001
13	0.2167	-0.0015000000000000013	0.8349	0.17230000000000023	0.2801	0.8092999999999999	0.22550000000000014	0.47550000000000003	0.8504	0.32150000000000023
14	0.2333	-0.0020999999999999908	0.8347	0.17240000000000022	0.27949999999999997	0.8089999999999999	0.22550000000000014	0.47509999999999997	0.8504	0.3220000000000002
15	0.25	-0.002599999999999991	0.8345	0.1725000000000002	0.27880000000000005	0.8089	0.22560000000000013	0.4748	0.8502999999999998	0.32240000000000013
16	0.2667	-0.0030999999999999917	0.8343	0.1725000000000002	0.2782	0.8088	0.2258000000000001	0.47450000000000003	0.8500999999999999	0.3227000000000001
17	0.2833	-0.003699999999999981	0.8341999999999998	0.1726000000000002	0.27780000000000005	0.8088	0.2260000000000001	0.47440000000000004	0.8496999999999999	0.3229000000000001
18	0.3	-0.0042999999999999705	0.8341999999999998	0.17280000000000018	0.27760000000000007	0.8088	0.22620000000000007	0.47430000000000005	0.8492	0.32300000000000006
19	0.3167	-0.0050000000000000044	0.8343	0.17310000000000014	0.27770000000000006	0.8087	0.22640000000000005	0.47450000000000003	0.8486	0.3229000000000001
20	0.3333	-0.005699999999999983	0.8345	0.1735000000000001	0.27790000000000004	0.8086	0.22680000000000022	0.4748	0.8478999999999999	0.3229000000000001
21	0.35	-0.006299999999999972	0.8347	0.17410000000000025	0.2782	0.8084	0.22730000000000017	0.47530000000000006	0.8472	0.3227000000000001
22	0.3667	-0.006899999999999962	0.8348	0.17480000000000018	0.2783	0.8079999999999998	0.2280000000000001	0.4758	0.8465	0.3226000000000001
23	0.3833	-0.007199999999999984	0.8347	0.1755000000000001	0.2782	0.8074999999999999	0.22890000000000021	0.47609999999999997	0.8456999999999999	0.3226000000000001
24	0.4	-0.007399999999999962	0.8345	0.17600000000000005	0.27770000000000006	0.8069	0.22980000000000012	0.47620000000000007	0.845	0.3229000000000001
25	0.4167	-0.007500000000000007	0.8343	0.1765000000000002	0.27690000000000003	0.8063	0.23070000000000024	0.47620000000000007	0.8443	0.32340000000000024
26	0.4333	-0.007399999999999962	0.8339999999999999	0.17690000000000017	0.27590000000000003	0.8056999999999999	0.23150000000000015	0.47609999999999997	0.8435999999999999	0.3240000000000002
27	0.45	-0.007299999999999973	0.8337999999999999	0.17700000000000016	0.27480000000000004	0.8051999999999999	0.23220000000000007	0.4759	0.8427	0.3245000000000001
28	0.4667	-0.007399999999999962	0.8335999999999999	0.17700000000000016	0.27370000000000005	0.8047	0.23280000000000023	0.47550000000000003	0.8416999999999999	0.32500000000000007
29	0.4833	-0.007399999999999962	0.8334999999999999	0.17680000000000018	0.27290000000000003	0.8043	0.23340000000000016	0.47530000000000006	0.8407	0.32520000000000004
30	0.5	-0.007500000000000007	0.8335999999999999	0.1767000000000002	0.27249999999999996	0.8038999999999998	0.23380000000000012	0.47530000000000006	0.8398999999999999	0.32520000000000004
31	0.5167	-0.007399999999999962	0.8338999999999999	0.1767000000000002	0.2723	0.8034999999999999	0.23420000000000007	0.47550000000000003	0.8392	0.32500000000000007
32	0.5333	-0.007099999999999995	0.8341999999999998	0.1767000000000002	0.2722	0.8031999999999999	0.23450000000000004	0.476	0.8388	0.3247000000000001
